<svg version="1.0" xmlns="http://www.w3.org/2000/svg" width="708" height="708" viewBox="0 0 531 531"><path d="M289.3 28.8c5.4 5.4 9.4 10.2 9 10.7-.4.4-.2.5.5.1.6-.4 1.2-.3 1.2.1 0 .5 1 1.4 2.3 2.2 1.2.7-3.2-4.1-9.8-10.8C285.9 24.4 280.3 19 280 19c-.2 0 3.9 4.4 9.3 9.8zm-19.4-2.1c-1.3 1.6-1.2 1.7.4.4 1.6-1.3 2.1-2.1 1.3-2.1-.2 0-1 .8-1.7 1.7zm-4 3c-1.3 1.6-1.2 1.7.4.4.9-.7 1.7-1.5 1.7-1.7 0-.8-.8-.3-2.1 1.3zm-4 3c-1.3 1.6-1.2 1.7.4.4 1.6-1.3 2.1-2.1 1.3-2.1-.2 0-1 .8-1.7 1.7zm17.6 49.8c0 26.9.1 37.8.2 24.2.2-13.7.2-35.7 0-49-.1-13.3-.2-2.2-.2 24.8zM291 36.4c0 .2.7.7 1.6 1 .8.3 1.2.2.9-.4-.6-1-2.5-1.4-2.5-.6zm-40.1 4.3c-1.3 1.6-1.2 1.7.4.4.9-.7 1.7-1.5 1.7-1.7 0-.8-.8-.3-2.1 1.3zm-18 13c-1.3 1.6-1.2 1.7.4.4 1.6-1.3 2.1-2.1 1.3-2.1-.2 0-1 .8-1.7 1.7zm-4 3c-1.3 1.6-1.2 1.7.4.4.9-.7 1.7-1.5 1.7-1.7 0-.8-.8-.3-2.1 1.3zm-.8 5.9c0 1.1.3 1.4.6.6.3-.7.2-1.6-.1-1.9-.3-.4-.6.2-.5 1.3zm.3 18.4c0 8 .2 11.2.3 7.2.2-3.9.2-10.5 0-14.5-.1-3.9-.3-.7-.3 7.3zm111-.4c-1.8 1.5-1.8 1.5.5.8 2-.5 3.7.8 11.7 8.7 5.1 5.1 9.1 9.6 8.9 9.9-.2.4.8 1.3 2.3 1.9 1.6.7-2.1-3.6-9.3-10.8-6.6-6.7-12-12.1-12-12.1-.1 0-1 .7-2.1 1.6zm-111.3 18c0 1.1.3 1.4.6.6.3-.7.2-1.6-.1-1.9-.3-.4-.6.2-.5 1.3zM340 148v50.9l-11.2.4-11.3.3 11.8.2 11.7.2v-51.5c0-28.3-.2-51.5-.5-51.5s-.5 22.9-.5 51zm-111.7-23c0 21.6.1 23.1.8 12.6.4-6.6.4-17.6 0-24.5-.7-11.4-.8-10.2-.8 11.9zm64.9-19.2c-1 .7-1.2 13.4-1 60.2.3 52.9.5 59.1 1.8 57.5.9-1.1 1-1.6.3-1.1-1.8 1-1.9-114.4-.1-116.2 1.4-1.4.9-1.5-1-.4zm-13.9 33.7c0 3.8.2 5.3.4 3.2.2-2 .2-5.2 0-7-.2-1.7-.4-.1-.4 3.8zm-76.4 7.2c-1.3 1.7-1.3 1.7.6.3 1.1-.8 2.2-1.6 2.4-1.7.2-.2 0-.3-.6-.3s-1.7.8-2.4 1.7zM191 158.5c-5.2 5.3-8.7 9.3-7.7 8.9.9-.3 1.7-1 1.7-1.6 0-.5.6-.6 1.3-.2.6.4.8.3.4-.1-.4-.5 2.7-4.4 7-8.7 4.3-4.3 7.5-7.8 7.3-7.8-.3 0-4.8 4.3-10 9.5zm88 39.7c0 45.4-.1 49.3-1.7 51.1-1.8 1.9-1.7 1.9.5.6l2.2-1.4v-49.7c0-27.4-.2-49.8-.5-49.8s-.5 22.1-.5 49.2zm-40-43.8c0 .3.9 1 2 1.6 1.1.6 2 .8 2 .6 0-.3-.9-1-2-1.6-1.1-.6-2-.8-2-.6zm-40 4.6c-.8.5-1 1-.5 1 .6 0 1.7-.5 2.5-1s1.1-1 .5-1c-.5 0-1.7.5-2.5 1zm33 1.4c0 .3.9 1 2 1.6 1.1.6 2 .8 2 .6 0-.3-.9-1-2-1.6-1.1-.6-2-.8-2-.6zm-27 20.9c0 3.8.3 4.7 1.8 4.7 1 0 1.3-.3.7-.8-.6-.4-1.2-2.3-1.4-4.2-.4-5.2-1.1-5-1.1.3zm48.4 26.2c0 17 .2 24.2.3 15.8.2-8.3.2-22.3 0-31-.1-8.7-.3-1.9-.3 15.2zm-109.5-15.7c-5.7 7.6-41.6 55.1-66.7 88.4-12.8 16.9-23.7 31-24.2 31.3-.6.3-1 1.1-1 1.7 0 .5 6.4-5 14.3-12.4 7.8-7.4 20.5-19.3 28.3-26.4 7.7-7.1 22.6-20.9 33.1-30.7 10.5-9.7 19.5-17.7 19.9-17.6.5 0 5.6 5.9 11.4 13.2 33.1 41.5 43.2 53.8 43.9 53.5.4-.2 14.4-8.4 31-18.3 34-20.3 31.7-17.6 20.6-24-2.9-1.7-12.1-7.1-20.4-12l-15.1-9V194h-9.8c-9.8 0-9.8 0-13 3.3l-3.1 3.2h6.3v12.2c.1 6.8-.2 12.3-.5 12.3s-1.6-2.2-2.9-5c-1.3-2.7-3.1-5.6-3.9-6.4-1.3-1.1-43.9-26.6-44.5-26.6 0 0-1.7 2.1-3.7 4.8z"/><path d="M226.4 206c0 10.7.2 15.1.3 9.7.2-5.3.2-14.1 0-19.5-.1-5.3-.3-.9-.3 9.8zM389 192.4c-16 9.9-45.7 27.5-47.3 28.2-1.5.5-1.7-.3-1.7-5.9 0-6.3-.1-6.6-2.7-7.1-1.6-.3-5.9-.4-9.6-.3-6.2.3-7 .6-10 3.6l-3.2 3.3 3.3-.6 3.2-.6v17.5c0 9.6-.2 17.5-.6 17.5-.3 0-1.7-2.5-3.1-5.6-1.3-3-2.8-5.4-3.2-5.2-.4.2-10.1 6-21.6 12.9-11.6 6.9-34.5 20.6-51 30.4-16.5 9.8-30.6 18.4-31.4 19.1-1.2 1-.6 2.2 3.4 6.8l4.7 5.6h109.7l14.8-18.3c8.1-10 15-18.4 15.3-18.7.3-.3 4-4.8 8.2-10 21-26.4 31.2-38.5 32.3-38.5 1.1 0 11.5 9.1 24.5 21.5 1.5 1.4 7.8 7.2 14.1 13s14.5 13.4 18.4 17c3.8 3.6 7.4 6.9 8 7.5.7.5 6.3 5.8 12.6 11.7 17.5 16.3 17.9 16.2 4.9-.9-28.4-37.5-73.6-97.3-77.9-103-2.5-3.5-4.8-6.2-5.1-6.2-.3 0-4.3 2.4-9 5.3z"/><path d="M292.3 234.5c0 3.8.2 5.3.4 3.2.2-2 .2-5.2 0-7-.2-1.7-.4-.1-.4 3.8zm3.1 4.1c-1.8 1.4-1.8 1.5.4.4 1.2-.6 2.2-1.3 2.2-1.5 0-.8-.5-.6-2.6 1.1zm-43.7 1.5c.7.7 1.5 1 1.8.7.3-.3-.2-.9-1.2-1.2-1.4-.6-1.5-.5-.6.5zm15.3 8.3c0 .2.8 1 1.8 1.7 1.5 1.3 1.6 1.2.3-.4s-2.1-2.1-2.1-1.3zm-137 23.8v7.8h15v-15.5h-15v7.7zm20 0v7.8h16.1l-.3-7.6-.3-7.6-7.8-.1-7.7-.2v7.7zm251-7.7c-.1 0-.2 3.5-.3 7.8l-.2 7.7H416v-14.8l-7.5-.4c-4.1-.2-7.5-.3-7.5-.3zm-21 8v7.5h16v-15h-16v7.5zM130 293v8h15v-16h-15v8zm20 0v8h14.7l.6-7.3c.2-3.9.3-7.5 0-8-.2-.4-3.8-.7-7.9-.7H150v8zm230.7-7.3c-.4.3-.7 3.9-.7 8v7.3h16v-16h-7.3c-4.1 0-7.7.3-8 .7zm20.3-.5c-.1.2-.2 3.8-.3 8.1l-.2 7.7H416v-16h-7.5c-4.1 0-7.5.1-7.5.2zM160.5 328c-33.1 3.3-64.4 15.8-82.9 33.1l-5.1 4.9 9.6-4.5c33.3-15.6 72.8-18.9 121.9-10.3 20.1 3.5 52.8 11.6 86.5 21.4 19.9 5.9 22 6.4 43 11.9 41.4 10.7 73.8 12.4 98.3 5.2 12.8-3.8 30.5-14.2 38.7-22.8l4-4.1-5 2.5c-6.6 3.3-20.2 7.3-29.2 8.6-16.3 2.5-39.4.9-65.3-4.5-15.2-3.1-22.3-5-64.5-16.9C263 339 232.9 332.1 209 329.1c-11-1.4-39.3-2.1-48.5-1.1z"/><path d="M110 368.7c-18.1 1.3-35.8 5.1-50.5 10.9-10.8 4.2-21.6 9.8-17 8.8 1.7-.3 6-1.2 9.7-2 10.4-2.2 31.3-4.4 41.3-4.4 4.9 0 15.5.7 23.5 1.5 34.8 3.3 46.9 5.7 117 23.2 51.7 12.8 68.8 16.3 99.3 20.3 19.9 2.5 51.9 2.8 65.3.5 34.9-6 56.5-20.7 74.6-51 .3-.6-3.6 3.1-8.7 8.2-14.9 14.7-28.9 22.7-49 27.9-10.5 2.8-12 2.9-33 2.9-22.6-.1-23.3-.2-50.5-5.6-17.2-3.4-26.7-5.8-54-13.4-11.3-3.2-22.1-6.1-24-6.5-1.9-.5-13.4-3.4-25.5-6.5-47.4-12.1-87.4-17.1-118.5-14.8zm-29 82.8V462h5v-21h-5v10.5zm146 0V462h5v-21h-5v10.5zm-167.6-8.1c-6.5 2.9-8.4 10.1-4 15.3 2.1 2.5 3.1 2.8 10 3.1 6.4.4 7.6.2 7.6-1.1 0-1.2-.8-1.5-3.4-1-9.9 1.6-16.3-6.1-10.1-12.2 2-2.1 3.4-2.5 8-2.5 3 0 5.5-.4 5.5-.9 0-2.4-8.7-2.8-13.6-.7zm114.9-.4c-2.4 1-3.7 3.9-2.7 6.4.4 1.1-.1 2.4-1.5 3.7-2.6 2.5-2.7 4.3-.1 6.9 1.7 1.7 3.2 2 11.5 1.8 8.3-.1 9.4-.3 8.2-1.6-1.3-1.2-1.3-1.8-.1-4.1 1.9-3.6 1.7-5.1-.5-5.1-1.2 0-2.1.9-2.5 2.5-.8 3-1.4 3.1-4.6.4-1.7-1.4-2.1-2.2-1.2-2.6.7-.2 1.9-1.1 2.7-2 4.5-4.5-2.2-9.1-9.2-6.3zm6.4 2.6c.4 1.1-.1 2.2-1.2 3.1-1.6 1.1-2.1 1.1-3.4-.1-1.2-1.2-1.2-1.8-.1-3 1.6-2.1 3.9-2 4.7 0zm-2 10c3.8 2.9 3.5 4.4-.7 4.4-3.9 0-6.3-2.5-5-5.1 1.4-2.4 1.6-2.4 5.7.7zm25.7-12.2c-6.5 2.9-8.4 10.1-4 15.3 2.1 2.5 3.1 2.8 10 3.1 6.4.4 7.6.2 7.6-1.1 0-1.2-.8-1.5-3.4-1-9.9 1.6-16.3-6.1-10.1-12.2 2-2.1 3.4-2.5 8-2.5 3 0 5.5-.4 5.5-.9 0-2.4-8.7-2.8-13.6-.7zM320 452v10h2.5c2.3 0 2.5-.4 2.5-4 0-3.8.2-4 2.9-4 4.4 0 7.8-1.6 8.6-3.9 1.6-5.2-2.6-8.1-11.6-8.1H320v10zm10.8-6.4c1.2.8 2.2 1.9 2.2 2.4 0 1.7-3.2 4-5.6 4-2.1 0-2.4-.4-2.4-4 0-4.5 1.8-5.2 5.8-2.4zM422 452v10h8c4.7 0 8-.4 8-1s-2.5-1-5.5-1H427v-9c0-8.9 0-9-2.5-9H422v10zm24 0v10h8c4.7 0 8-.4 8-1s-2.5-1-5.5-1H451v-9c0-8.9 0-9-2.5-9H446v10zm27.4-8.6c-6.5 2.9-8.4 10.1-4 15.3 2.1 2.5 3.1 2.8 10 3.1 6.4.4 7.6.2 7.6-1.1 0-1.2-.8-1.5-3.4-1-9.9 1.6-16.3-6.1-10.1-12.2 2-2.1 3.4-2.5 8-2.5 3 0 5.5-.4 5.5-.9 0-2.4-8.7-2.8-13.6-.7zM98.3 448c-4.4 1.8-5.7 8.6-2.3 12 1.6 1.6 3.3 2 8.1 2 4.3 0 6-.3 5.7-1.2-.3-.8-2-1.1-4.5-1-2.7.2-4.6-.2-5.7-1.3-2.8-2.8-1.8-3.5 4.9-3.5 5.8 0 6.5-.2 6.5-1.9 0-4.4-7.2-7.3-12.7-5.1zm7.1 2.6c2.3 2.2 2.1 2.4-3.1 2.4-4.5 0-4.6 0-2.8-2 2.2-2.4 3.8-2.5 5.9-.4zm16.4-2.9c-1 .2-1.8.8-1.8 1.2 0 1.6 1.3 1.9 3.7 1 1.6-.6 3.1-.5 4.4.1 2.5 1.4 2.4 3-.1 3-1.1 0-3.6.7-5.5 1.4-2.7 1.2-3.5 2.1-3.5 4 0 3 1.6 3.6 9.3 3.5l5.7-.1V456c0-4.9-.4-6.1-2.2-7.4-2.1-1.5-6.3-1.9-10-.9zm8.2 8.6c0 3.1-5.1 5-6.6 2.5-.8-1.3 2.2-3.8 4.8-3.8 1 0 1.8.6 1.8 1.3zm14-1.6c0 7.1.1 7.3 2.5 7.3 2.2 0 2.4-.4 2.7-5.8.3-5.1.5-5.7 2.6-6 3.7-.5 5.2 1.5 5.2 6.9 0 4.2.3 4.9 2 4.9 1.8 0 2-.7 2-5.5 0-7.8-1.8-9.4-10.4-9.3l-6.6.1v7.4zm100.3-6.7c-4.4 1.8-5.7 8.6-2.3 12 1.6 1.6 3.3 2 8.1 2 4.3 0 6-.3 5.7-1.2-.3-.8-2-1.1-4.5-1-2.7.2-4.6-.2-5.7-1.3-2.8-2.8-1.8-3.5 4.9-3.5 5.8 0 6.5-.2 6.5-1.9 0-4.4-7.2-7.3-12.7-5.1zm7.1 2.6c2.3 2.2 2.1 2.4-3.1 2.4-4.5 0-4.6 0-2.8-2 2.2-2.4 3.8-2.5 5.9-.4zm15.4-2.9c-1 .2-1.8.8-1.8 1.2 0 1.6 1.3 1.9 3.7 1 1.6-.6 3.1-.5 4.4.1 2.5 1.4 2.4 3-.1 3-1.1 0-3.6.7-5.5 1.4-2.7 1.2-3.5 2.1-3.5 4 0 3 1.6 3.6 9.3 3.5l5.7-.1V456c0-4.9-.4-6.1-2.2-7.4-2.1-1.5-6.3-1.9-10-.9zm8.2 8.6c0 3.1-5.1 5-6.6 2.5-.8-1.3 2.2-3.8 4.8-3.8 1 0 1.8.6 1.8 1.3zm14-1.7c0 7.2.1 7.4 2.5 7.4 2.3 0 2.5-.3 2.5-4.8 0-5.1 1.2-7.2 4.2-7.2 1 0 1.8-.6 1.8-1.4 0-.9-1.5-1.3-5.5-1.3H289v7.3zm56 0c0 7.2.1 7.4 2.5 7.4 2.3 0 2.5-.3 2.5-4.8 0-5.1 1.2-7.2 4.2-7.2 1 0 1.8-.6 1.8-1.4 0-.9-1.5-1.3-5.5-1.3H345v7.3zm21-6.9c-3.3 1.3-5 3.7-5 7 0 4.9 2.9 7.3 8.9 7.3 8.6 0 13-6.3 8.3-12-1.8-2.2-9-3.6-12.2-2.3zm8 3.3c1.1 1.1 2 2.6 2 3.3 0 2.3-3.1 5.7-5.2 5.7-2.7 0-5.8-2.8-5.8-5.2 0-2.2 3.4-5.8 5.5-5.8.8 0 2.4.9 3.5 2zm15.9-2.1c-3 2.5-1.9 4.9 3.2 6.6 5 1.7 4.5 4-.8 3.9-3 0-4.3.3-4.3 1.3 0 1.8 9 1.8 11.4 0 3.4-2.5 1.5-5.5-4.8-7.7-2.4-.9-2.6-1.3-1.5-2.6.8-1 2.1-1.3 4.2-.8 2.2.5 2.8.3 2.5-.7-.7-2.3-7.1-2.3-9.9 0zM59 488.5c0 9.8.1 10.5 2 10.5 1.8 0 2-.7 2-5.5 0-5.9 1.8-8.2 5.2-6.4 1.4.8 1.8 2.2 1.8 6.4 0 4.8.2 5.5 2 5.5 1.7 0 2-.7 2-4.4 0-2.5-.4-5.6-1-7-1.1-3-4.9-4.2-7.9-2.6-2 1-2.1.8-2.1-3 0-3.3-.3-4-2-4-1.9 0-2 .7-2 10.5zm138-7c0 3.2-.2 3.5-2.3 3-6.1-1.6-10.7 3.9-8.7 10.1 1.3 3.8 2.6 4.4 9.8 4.2l5.2-.1v-10.4c0-9.6-.1-10.3-2-10.3-1.6 0-2 .7-2 3.5zm-1.6 5.8c2.2 1.6 1.8 7.5-.6 9.1-4.2 2.6-7.9-5.2-4.3-8.8 2-1.9 2.6-2 4.9-.3zm252.9-7.4c-4.3 4.7-4.7 5.5-3.5 5.9.8.2 1.2 2.7 1.2 6.8 0 5.7.2 6.4 2 6.4s2-.7 2-6.5c0-5.1.3-6.5 1.5-6.5.8 0 1.5-.5 1.5-1 0-.6-.7-1-1.6-1-2.4 0-1.2-3.5 1.4-3.8 1.2-.2 2-.8 1.7-1.3-1-1.5-4.4-1-6.2 1zm-422 .3c.3.7 1.5 5.3 2.8 10.1 2.1 7.6 2.7 8.7 4.4 8.5 1.5-.2 2.5-2 4.1-7.3 2.3-7.4 2.5-7.4 4.7 1.5 1 4.1 1.8 5.6 3.3 5.8 1.7.2 2.4-1.1 5-9.8 2.8-8.9 2.9-10 1.4-10-1.2 0-2.3 2-4 7.7l-2.3 7.8-2-7.8c-2.6-10.5-4.6-10.5-7.6-.2-1.2 4.1-2.3 7.5-2.5 7.5-.3 0-1.2-3.4-2.2-7.5-1.4-6.1-2.1-7.5-3.7-7.5-1.1 0-1.7.5-1.4 1.2zm305 .5c-.7.2-1.3 1.1-1.3 1.8s-.6 1.6-1.2 1.9c-1 .5-1 .7 0 1.2.7.3 1.2 2.4 1.2 5 0 6.1 1.4 8.4 5 8.4 1.7 0 3-.5 3-1 0-.6-.9-1-2-1-1.8 0-2-.7-2-5.5s.2-5.5 2-5.5c1.1 0 2-.5 2-1 0-.6-.9-1-2-1-1.3 0-2-.7-2-2 0-2-.5-2.3-2.7-1.3zm168 0c-.7.2-1.3 1.1-1.3 1.8s-.6 1.6-1.2 1.9c-1 .5-1 .7 0 1.2.7.3 1.2 2.4 1.2 5 0 6.1 1.4 8.4 5 8.4 1.7 0 3-.5 3-1 0-.6-.9-1-2-1-1.8 0-2-.7-2-5.5s.2-5.5 2-5.5c1.1 0 2-.5 2-1 0-.6-.9-1-2-1-1.3 0-2-.7-2-2 0-2-.5-2.3-2.7-1.3zm-414.7 5.4c-3.2 2.5-3.7 8.6-.8 11.2 2 1.9 11.2 2.4 11.2.7 0-.6-1.7-1-3.8-1-3.9 0-6.2-1.4-6.2-3.7 0-.9 1.7-1.3 5.5-1.3 6.3 0 7.1-1.5 3-5.5-3-3-5.4-3.1-8.9-.4zm5.8.5c.9.3 1.6 1.5 1.6 2.5 0 1.5-.7 1.9-3.5 1.9-3.6 0-4.6-1.5-2.3-3.8 1.4-1.4 2-1.4 4.2-.6zm12.6 4.9c0 6.8.2 7.5 2 7.5 1.7 0 2-.7 2-4.4 0-5.7.8-7.6 3.1-7.6 1 0 1.9-.7 1.9-1.5 0-1.8-1.4-1.9-4.1-.5-1.3.7-1.9.7-1.9 0 0-.5-.7-1-1.5-1-1.2 0-1.5 1.5-1.5 7.5zm16.6-5.4c-3.2 2.5-3.7 8.6-.8 11.2 2 1.9 11.2 2.4 11.2.7 0-.6-1.7-1-3.8-1-3.9 0-6.2-1.4-6.2-3.7 0-.9 1.7-1.3 5.5-1.3 6.3 0 7.1-1.5 3-5.5-3-3-5.4-3.1-8.9-.4zm5.8.5c.9.3 1.6 1.5 1.6 2.5 0 1.5-.7 1.9-3.5 1.9-3.6 0-4.6-1.5-2.3-3.8 1.4-1.4 2-1.4 4.2-.6zm27-1.2c-7.2 3.2-4.4 13.6 3.6 13.6 5.3 0 8.4-2.8 8.4-7.4 0-2-.7-4.3-1.5-5.1-2.1-2.2-7-2.7-10.5-1.1zm7 2.2c1.9 1.8 2.1 6.5.4 8.2-.7.7-2.1 1.2-3.3 1.2-2.9 0-4.5-1.9-4.5-5.1 0-2.9 2.3-5.9 4.5-5.9.7 0 2.1.7 2.9 1.6zm11.6 3.9c0 6.8.2 7.5 2 7.5 1.7 0 2-.7 2-4.4 0-5.7.8-7.6 3.1-7.6 1 0 1.9-.7 1.9-1.5 0-1.8-1.4-1.9-4.1-.5-1.3.7-1.9.7-1.9 0 0-.5-.7-1-1.5-1-1.2 0-1.5 1.5-1.5 7.5zm40.6-5.4c-3.2 2.5-3.7 8.6-.8 11.2 2 1.9 11.2 2.4 11.2.7 0-.6-1.7-1-3.8-1-3.9 0-6.2-1.4-6.2-3.7 0-.9 1.7-1.3 5.5-1.3 6.3 0 7.1-1.5 3-5.5-3-3-5.4-3.1-8.9-.4zm5.8.5c.9.3 1.6 1.5 1.6 2.5 0 1.5-.7 1.9-3.5 1.9-3.6 0-4.6-1.5-2.3-3.8 1.4-1.4 2-1.4 4.2-.6zm12.6 4.9c0 6.8.2 7.5 2 7.5 1.7 0 2-.7 2-4.4 0-5.7.8-7.6 3.1-7.6 1 0 1.9-.7 1.9-1.5 0-1.8-1.4-1.9-4.1-.5-1.3.7-1.9.7-1.9 0 0-.5-.7-1-1.5-1-1.2 0-1.5 1.5-1.5 7.5zm26 0c0 6.8.2 7.5 2 7.5s2-.7 2-5.4c0-6.1 1.9-8.8 4.5-6.6 1 .8 1.5 3.1 1.5 6.6 0 4.7.2 5.4 2 5.4s2-.7 2-5.4c0-3.5.5-5.8 1.5-6.6 2.6-2.2 4.5.5 4.5 6.6 0 4.7.2 5.4 2 5.4 1.7 0 2-.7 2-4.4 0-2.5-.4-5.6-1-7-1.1-3-4.9-4.3-7.8-2.7-1.5.8-2.8.8-4.6-.1-2-.8-3.2-.8-5.1 0-1.5.7-2.5.8-2.5.2 0-.6-.7-1-1.5-1-1.2 0-1.5 1.5-1.5 7.5zm33.6-5.4c-3.2 2.5-3.7 8.6-.8 11.2 2 1.9 11.2 2.4 11.2.7 0-.6-1.7-1-3.8-1-3.9 0-6.2-1.4-6.2-3.7 0-.9 1.7-1.3 5.5-1.3 6.3 0 7.1-1.5 3-5.5-3-3-5.4-3.1-8.9-.4zm5.8.5c.9.3 1.6 1.5 1.6 2.5 0 1.5-.7 1.9-3.5 1.9-3.6 0-4.6-1.5-2.3-3.8 1.4-1.4 2-1.4 4.2-.6zm15.2-.5c-3.2 2.5-3.7 8.6-.8 11.2 2 1.9 11.2 2.4 11.2.7 0-.6-1.7-1-3.8-1-3.9 0-6.2-1.4-6.2-3.7 0-.9 1.7-1.3 5.5-1.3 6.3 0 7.1-1.5 3-5.5-3-3-5.4-3.1-8.9-.4zm5.8.5c.9.3 1.6 1.5 1.6 2.5 0 1.5-.7 1.9-3.5 1.9-3.6 0-4.6-1.5-2.3-3.8 1.4-1.4 2-1.4 4.2-.6zm29.8-1c-3.1 2.2-2.7 4.1 1.3 6.5 1.9 1.2 3.5 2.8 3.5 3.6 0 1.2-.8 1.4-3.5 1-2.6-.4-3.5-.2-3.5.9 0 .9 1.1 1.4 3.4 1.4 5.1 0 6.6-.9 6.6-4 0-2.1-.7-3-3-4-3.5-1.4-3.7-4.4-.5-4.6 3.6-.2 4-.4 2.5-1.4-2.2-1.4-4.2-1.2-6.8.6zm29.7-.5c-4.8 1.8-5.9 7.9-2.1 12.1 1.6 2 10.2 2.6 10.2.8 0-.6-1.5-1-3.3-1-4 0-5.7-1.5-5.7-5 0-3.7 3.2-6.4 6.5-5.6 2.7.7 3.5-.8.9-1.8-2-.8-3.3-.7-6.5.5zm18.5.3c-7.2 3.2-4.4 13.6 3.6 13.6 5.3 0 8.4-2.8 8.4-7.4 0-2-.7-4.3-1.5-5.1-2.1-2.2-7-2.7-10.5-1.1zm7 2.2c1.9 1.8 2.1 6.5.4 8.2-.7.7-2.1 1.2-3.3 1.2-2.9 0-4.5-1.9-4.5-5.1 0-2.9 2.3-5.9 4.5-5.9.7 0 2.1.7 2.9 1.6zm12.6 3.9c0 6.8.2 7.5 2 7.5s2-.7 2-5.4c0-6.1 1.9-8.8 4.5-6.6 1 .8 1.5 3.1 1.5 6.6 0 4.7.2 5.4 2 5.4s2-.7 2-5.4c0-3.5.5-5.8 1.5-6.6 2.6-2.2 4.5.5 4.5 6.6 0 4.7.2 5.4 2 5.4 1.7 0 2-.7 2-4.4 0-2.5-.4-5.6-1-7-1.1-3-4.9-4.3-7.8-2.7-1.5.8-2.8.8-4.6-.1-2-.8-3.2-.8-5.1 0-1.5.7-2.5.8-2.5.2 0-.6-.7-1-1.5-1-1.2 0-1.5 1.5-1.5 7.5zm48.4-6.1c-7.2 3.2-4.4 13.6 3.6 13.6 5.3 0 8.4-2.8 8.4-7.4 0-2-.7-4.3-1.5-5.1-2.1-2.2-7-2.7-10.5-1.1zm7 2.2c1.9 1.8 2.1 6.5.4 8.2-.7.7-2.1 1.2-3.3 1.2-2.9 0-4.5-1.9-4.5-5.1 0-2.9 2.3-5.9 4.5-5.9.7 0 2.1.7 2.9 1.6zm11.6 3.9c0 6.8.2 7.5 2 7.5 1.7 0 2-.7 2-4.4 0-5.7.8-7.6 3.1-7.6 1 0 1.9-.7 1.9-1.5 0-1.8-1.4-1.9-4.1-.5-1.3.7-1.9.7-1.9 0 0-.5-.7-1-1.5-1-1.2 0-1.5 1.5-1.5 7.5z"/></svg>